<?xml version="1.0" encoding="utf-8"?>
<!-- Generator: Adobe Illustrator 25.1.0, SVG Export Plug-In . SVG Version: 6.00 Build 0)  -->
<svg version="1.1" id="Layer_1" xmlns="http://www.w3.org/2000/svg" xmlns:xlink="http://www.w3.org/1999/xlink" x="0px" y="0px"
	 viewBox="0 0 32 32" style="enable-background:new 0 0 32 32;" xml:space="preserve">
<style type="text/css">
	.st0{fill:#00101a;}
</style>
<path class="st0" d="M1.99,2.54c1.52-1.57,4.03-1.61,5.59-0.09l8.37,8.11l8.11-8.36c1.52-1.57,4.03-1.61,5.59-0.09
	c1.57,1.52,1.61,4.02,0.09,5.59l-8.11,8.37L30,24.19c1.57,1.52,1.61,4.03,0.09,5.59c-0.78,0.8-1.81,1.2-2.84,1.2
	c-0.99,0-1.99-0.37-2.75-1.12l-8.37-8.11l-8.11,8.36c-0.78,0.8-1.81,1.2-2.84,1.2c-0.99,0-1.99-0.37-2.75-1.12
	c-1.57-1.52-1.61-4.02-0.09-5.59l8.11-8.36L2.08,8.14C0.51,6.62,0.47,4.11,1.99,2.54z"/>
</svg>
