<?xml version="1.0" standalone="no"?>
<!DOCTYPE svg PUBLIC "-//W3C//DTD SVG 20010904//EN"
 "http://www.w3.org/TR/2001/REC-SVG-20010904/DTD/svg10.dtd">
<svg version="1.0" xmlns="http://www.w3.org/2000/svg"
 width="703.000000pt" height="662.000000pt" viewBox="0 0 703.000000 662.000000"
 preserveAspectRatio="xMidYMid meet">

<g transform="translate(0.000000,662.000000) scale(0.100000,-0.100000)"
fill="#000000" stroke="none">
<path d="M3205 6345 c-393 -45 -775 -173 -1110 -373 -280 -167 -603 -459 -679
-614 -43 -87 -59 -169 -46 -239 9 -49 9 -49 -46 -126 -116 -162 -232 -381
-306 -578 -49 -128 -62 -175 -52 -175 4 0 24 16 46 36 54 49 98 65 175 65 l65
0 16 42 c37 97 146 301 221 413 l81 121 75 5 c119 8 194 50 336 190 207 205
350 309 574 419 314 154 595 219 943 219 282 0 528 -44 774 -140 284 -110 491
-246 745 -493 157 -152 219 -187 339 -195 l73 -5 43 -61 c99 -139 200 -324
257 -468 l23 -58 63 0 c72 0 131 -18 180 -56 20 -15 38 -25 41 -22 9 10 -69
215 -137 356 -74 156 -141 271 -223 386 -53 73 -54 75 -44 118 20 86 -10 204
-76 304 -19 29 -84 101 -143 159 -417 414 -928 667 -1533 760 -146 23 -519 28
-675 10z"/>
<path d="M3320 5078 c-741 -69 -1373 -545 -1591 -1198 -98 -294 -107 -622 -24
-928 124 -462 467 -858 940 -1087 304 -147 569 -202 929 -192 263 7 445 43
671 132 49 19 107 35 127 35 49 0 351 -57 603 -115 215 -48 268 -54 303 -29
46 32 46 44 -3 200 -91 293 -120 440 -113 570 5 94 12 117 93 311 51 124 87
256 106 384 15 108 15 332 0 434 -84 557 -439 1027 -976 1291 -324 159 -699
227 -1065 192z m-383 -1433 c64 -19 143 -88 174 -152 30 -63 31 -159 2 -224
-68 -153 -247 -219 -395 -146 -181 89 -217 315 -73 457 74 72 184 97 292 65z
m677 -5 c66 -25 130 -85 159 -148 27 -58 28 -168 3 -225 -24 -55 -82 -115
-140 -145 -75 -38 -179 -38 -258 1 -102 50 -158 143 -158 261 1 196 203 327
394 256z m691 -13 c59 -30 95 -66 127 -127 32 -63 33 -186 0 -247 -29 -55 -83
-107 -141 -135 -64 -32 -176 -31 -243 1 -235 114 -218 435 29 527 58 22 167
13 228 -19z"/>
<path d="M1176 4215 c-55 -19 -86 -44 -121 -96 l-30 -44 -145 3 c-172 4 -247
-10 -353 -65 -136 -72 -242 -209 -282 -368 -22 -87 -22 -930 0 -1024 48 -204
224 -378 425 -422 61 -14 252 -18 315 -7 39 6 40 6 61 -35 11 -23 39 -56 62
-74 48 -36 137 -60 158 -42 19 16 21 2158 2 2177 -15 15 -43 15 -92 -3z"/>
<path d="M5753 4219 c-10 -10 -13 -242 -13 -1090 0 -938 2 -1078 15 -1089 39
-32 180 39 219 110 l18 35 152 -3 c175 -4 239 8 351 66 131 69 241 209 279
358 23 90 24 950 1 1039 -50 195 -196 348 -390 407 -55 17 -97 22 -195 22 -69
1 -140 -2 -157 -6 -31 -7 -34 -5 -52 30 -35 67 -102 116 -177 127 -26 4 -43 2
-51 -6z"/>
<path d="M1150 1974 c0 -16 106 -204 174 -309 106 -163 213 -294 370 -451 154
-153 266 -244 451 -366 262 -173 600 -315 908 -383 58 -13 77 -21 77 -34 0 -9
11 -39 24 -66 41 -90 129 -145 231 -145 146 0 258 113 259 260 0 180 -174 303
-346 244 -51 -17 -123 -74 -133 -104 -8 -27 -22 -26 -177 14 -462 119 -892
373 -1232 727 -124 130 -261 303 -337 429 -25 41 -58 97 -75 123 l-29 49 -65
2 c-36 2 -73 7 -82 11 -10 4 -18 4 -18 -1z"/>
</g>
</svg>
