<?xml version="1.0" encoding="utf-8"?>
<!-- Generator: Adobe Illustrator 19.0.1, SVG Export Plug-In . SVG Version: 6.00 Build 0)  -->
<svg version="1.1" id="Camada_1" xmlns="http://www.w3.org/2000/svg" xmlns:xlink="http://www.w3.org/1999/xlink" x="0px" y="0px"
	 viewBox="0 0 227.6 112.1" style="enable-background:new 0 0 227.6 112.1;" xml:space="preserve">
<style type="text/css">
	.st0{fill-rule:evenodd;clip-rule:evenodd;fill:#004F91;}
	.st1{fill:none;stroke:#000000;stroke-width:1.4173;stroke-linecap:round;stroke-linejoin:round;}
</style>
<path class="st0" d="M75.5,35.2l25.7-28.5L114,48l12-41.8l26.1,29.2l-21,25.4c5.3-14,5.7-25-1-31.7l-16.4,42.3L97,28.5
	c-7.4,8.1-6.4,19.5-0.5,32.3L75.5,35.2z"/>
<g>
	<path class="st1" d="M21,91.2v-8.5c0-1.6-1.3-2.8-2.8-2.8H8.2"/>
	<line class="st1" x1="9.6" y1="79.9" x2="9.6" y2="91.2"/>
	<line class="st1" x1="76.9" y1="74.2" x2="76.9" y2="91.2"/>
	<line class="st1" x1="137.2" y1="74.2" x2="137.2" y2="91.2"/>
	<line class="st1" x1="141.4" y1="74.2" x2="141.4" y2="79.9"/>
	<line class="st1" x1="201" y1="79.9" x2="201" y2="91.2"/>
	<line class="st1" x1="86.2" y1="79.9" x2="86.2" y2="91.2"/>
	<line class="st1" x1="201" y1="74.2" x2="201" y2="77"/>
	<path class="st1" d="M32.3,91.2v-8.5c0-1.6-1.3-2.8-2.8-2.8h-5.7c-1.6,0-2.8,1.3-2.8,2.8v8.5"/>
	<path class="st1" d="M50.7,91.2v-8.5c0-1.6-1.3-2.8-2.8-2.8H38"/>
	<path class="st1" d="M86.2,82.7c0-1.6,1.3-2.8,2.8-2.8h4.3"/>
	<line class="st1" x1="81.9" y1="79.9" x2="72" y2="79.9"/>
	<path class="st1" d="M97.5,79.9v8.5c0,1.6,1.3,2.8,2.8,2.8h11.3v-8.5c0-1.6-1.3-2.8-2.8-2.8H97.5z"/>
	<path class="st1" d="M196.7,79.9h-14.2v8.5c0,1.6,1.3,2.8,2.8,2.8h11.3"/>
	<path class="st1" d="M50.7,85.5v2.8c0,1.6-1.3,2.8-2.8,2.8H36.5v-2.8c0-1.6,1.3-2.8,2.8-2.8H50.7z"/>
	<path class="st1" d="M159.9,91.2v-8.5c0-1.6-1.3-2.8-2.8-2.8h-9.9"/>
	<path class="st1" d="M159.9,85.5v2.8c0,1.6-1.3,2.8-2.8,2.8h-11.3v-2.8c0-1.6,1.3-2.8,2.8-2.8H159.9z"/>
	<path class="st1" d="M219.4,91.2v-8.5c0-1.6-1.3-2.8-2.8-2.8h-9.9"/>
	<path class="st1" d="M219.4,85.5v2.8c0,1.6-1.3,2.8-2.8,2.8h-11.3v-2.8c0-1.6,1.3-2.8,2.8-2.8H219.4z"/>
	<path class="st1" d="M137.2,79.9h-11.3c-1.6,0-2.8,1.3-2.8,2.8v8.5h11.3c1.6,0,2.8-1.3,2.8-2.8V79.9z"/>
	<path class="st1" d="M69.1,88.4c0,1.6-1.3,2.8-2.8,2.8H55"/>
	<path class="st1" d="M69.1,88.4c0-1.6-1.3-2.8-2.8-2.8H55v-2.8c0-1.6,1.3-2.8,2.8-2.8h9.9"/>
	<path class="st1" d="M178.3,88.4c0,1.6-1.3,2.8-2.8,2.8h-11.3"/>
	<path class="st1" d="M178.3,88.4c0-1.6-1.3-2.8-2.8-2.8h-11.3v-2.8c0-1.6,1.3-2.8,2.8-2.8h9.9"/>
</g>
<g>
	<path d="M80,102.8c0,1.7-1.1,2.6-2.3,2.6c-1.2,0-2.2-1-2.2-2.5c0-1.6,1-2.6,2.3-2.6C79.1,100.3,80,101.3,80,102.8z M75.9,102.9
		c0,1.1,0.7,2.2,1.8,2.2c1.2,0,1.9-1.1,1.9-2.3c0-1-0.6-2.2-1.8-2.2C76.5,100.6,75.9,101.7,75.9,102.9z"/>
	<path d="M82.8,105.3v-4.9h0.3l2,2.9c0.4,0.6,0.7,1.1,0.9,1.6l0,0c-0.1-0.7-0.1-1.2-0.1-2v-2.5h0.3v4.9H86l-1.9-2.9
		c-0.4-0.6-0.7-1.1-1-1.6l0,0c0,0.6,0,1.1,0,2v2.5H82.8z"/>
	<path d="M91.8,102.9h-2v2.2h2.2v0.3h-2.6v-4.9H92v0.3h-2.1v1.9h2V102.9z"/>
	<path d="M101.9,105.1c-0.3,0.1-0.7,0.2-1.4,0.2c-1.2,0-2.4-0.8-2.4-2.5c0-1.5,1-2.6,2.6-2.6c0.6,0,1,0.1,1.2,0.2l-0.1,0.3
		c-0.3-0.1-0.6-0.2-1-0.2c-1.4,0-2.2,0.9-2.2,2.3c0,1.3,0.8,2.2,2.1,2.2c0.4,0,0.8-0.1,1.1-0.2L101.9,105.1z"/>
	<path d="M104.7,100.4h0.4v4.6h2.2v0.3h-2.6V100.4z"/>
	<path d="M110.5,103.6l-0.6,1.7h-0.4l1.8-4.9h0.3l1.8,4.9h-0.4l-0.6-1.7H110.5z M112.4,103.3l-0.6-1.6c-0.1-0.3-0.2-0.6-0.3-0.9h0
		c-0.1,0.3-0.1,0.5-0.3,0.9l-0.6,1.7H112.4z"/>
	<path d="M116.1,104.8c0.3,0.2,0.7,0.3,1.1,0.3c0.8,0,1.2-0.4,1.2-1c0-0.6-0.3-0.9-1-1.2c-0.8-0.3-1.3-0.7-1.3-1.4
		c0-0.7,0.6-1.3,1.5-1.3c0.5,0,0.8,0.1,1,0.2l-0.1,0.3c-0.1-0.1-0.5-0.2-0.9-0.2c-0.8,0-1.1,0.5-1.1,0.9c0,0.5,0.3,0.8,1,1.1
		c0.8,0.3,1.3,0.7,1.3,1.4c0,0.7-0.5,1.4-1.6,1.4c-0.4,0-0.9-0.1-1.2-0.3L116.1,104.8z"/>
	<path d="M121.5,104.8c0.3,0.2,0.7,0.3,1.1,0.3c0.8,0,1.2-0.4,1.2-1c0-0.6-0.3-0.9-1-1.2c-0.8-0.3-1.3-0.7-1.3-1.4
		c0-0.7,0.6-1.3,1.5-1.3c0.5,0,0.8,0.1,1,0.2l-0.1,0.3c-0.1-0.1-0.5-0.2-0.9-0.2c-0.8,0-1.1,0.5-1.1,0.9c0,0.5,0.3,0.8,1,1.1
		c0.8,0.3,1.3,0.7,1.3,1.4c0,0.7-0.5,1.4-1.6,1.4c-0.4,0-0.9-0.1-1.2-0.3L121.5,104.8z"/>
	<path d="M134.7,102.8c0,1.7-1.1,2.6-2.3,2.6c-1.2,0-2.2-1-2.2-2.5c0-1.6,1-2.6,2.3-2.6C133.8,100.3,134.7,101.3,134.7,102.8z
		 M130.6,102.9c0,1.1,0.7,2.2,1.8,2.2c1.2,0,1.9-1.1,1.9-2.3c0-1-0.6-2.2-1.8-2.2C131.2,100.6,130.6,101.7,130.6,102.9z"/>
	<path d="M137.5,105.3v-4.9h0.3l2,2.9c0.4,0.6,0.7,1.1,0.9,1.6l0,0c-0.1-0.7-0.1-1.2-0.1-2v-2.5h0.3v4.9h-0.3l-1.9-2.9
		c-0.4-0.6-0.7-1.1-1-1.6l0,0c0,0.6,0,1.1,0,2v2.5H137.5z"/>
	<path d="M144.2,100.4h0.4v4.6h2.2v0.3h-2.6V100.4z"/>
	<path d="M150,105.3v-2.1l-1.6-2.8h0.4l0.8,1.5c0.2,0.4,0.4,0.7,0.6,1.1h0c0.1-0.3,0.4-0.7,0.6-1.1l0.9-1.5h0.4l-1.7,2.8v2.1H150z"
		/>
</g>
<g>
</g>
<g>
</g>
<g>
</g>
<g>
</g>
<g>
</g>
<g>
</g>
</svg>
